<svg width="250" height="160" viewBox="0 0 250 160" xmlns="http://www.w3.org/2000/svg" style="background:#FFF200"><g fill="none" fill-rule="evenodd"><path fill="#FFF200" fill-rule="nonzero" d="M1.873 90.095h246.803v-19.22H1.873v19.22"/><path d="M156.417 84.662h1.025v-3.558c.237.012.343.012.527.012.51 0 .68-.012 1.06-.065.87 1.49 1.46 2.38 1.97 2.92.55.58 1.01.77 1.88.77l.22-.09.13-.41c-.91-.09-1.71-.96-3.16-3.41 1.19-.49 1.77-1.24 1.77-2.29 0-.76-.36-1.49-.9-1.84-.45-.3-1.03-.41-2.318-.41-.236 0-.447 0-1.01.01-.41.02-.515.02-1.224.03v8.36zm1.025-7.67c.302-.015.882-.04 1.183-.04.606 0 1.025.066 1.33.196.512.225.787.75.787 1.49 0 1.25-.735 1.82-2.38 1.82-.287 0-.54-.014-.92-.04v-3.426z" fill-rule="nonzero" fill="#FFF"/><path d="M156.417 84.662h1.025v-3.558c.237.012.343.012.527.012.51 0 .68-.012 1.06-.065.87 1.49 1.46 2.38 1.97 2.92.55.58 1.01.77 1.88.77l.22-.09.13-.41c-.91-.09-1.71-.96-3.16-3.41 1.19-.49 1.77-1.24 1.77-2.29 0-.76-.36-1.49-.9-1.84-.45-.3-1.03-.41-2.318-.41-.236 0-.447 0-1.01.01-.41.02-.515.02-1.224.03v8.36zm1.025-7.67c.302-.015.882-.04 1.183-.04.606 0 1.025.066 1.33.196.512.225.787.75.787 1.49 0 1.25-.735 1.82-2.38 1.82-.287 0-.54-.014-.92-.04v-3.426z" fill-rule="nonzero" fill="#231F20"/><g stroke="#231F20" stroke-width=".5"><path d="M156.417 84.662h1.025v-3.558c.237.012.343.012.527.012.51 0 .68-.012 1.06-.065.87 1.49 1.46 2.38 1.97 2.92.55.58 1.01.77 1.88.77l.22-.09.13-.41c-.91-.09-1.71-.96-3.16-3.41 1.19-.49 1.77-1.24 1.77-2.29 0-.76-.36-1.49-.9-1.84-.45-.3-1.03-.41-2.318-.41-.236 0-.447 0-1.01.01-.41.02-.515.02-1.224.03v8.36z"/><path d="M157.442 76.992c.302-.015.882-.04 1.183-.04.606 0 1.025.066 1.33.196.512.225.787.75.787 1.49 0 1.25-.735 1.82-2.38 1.82-.287 0-.54-.014-.92-.04v-3.426z"/></g><path d="M34.708 76.648l.012-.052c.026-.212-1.145-.435-2.287-.435-1.315 0-2.3.27-3.183.85-1.235.83-1.985 2.19-1.985 3.65 0 1.39.697 2.72 1.815 3.46.735.49 1.523.7 2.694.7.83 0 2.053-.13 2.46-.28l.21-.18.09-.55.016-.06-.053-.05-.067-.05-.065-.032-.04.014c-.645.34-1.564.554-2.43.554-.882 0-1.684-.302-2.317-.895-.775-.7-1.142-1.61-1.142-2.77 0-2.2 1.42-3.622 3.575-3.622.73 0 1.7.21 2.21.49l.19.08.08-.025.08-.04.08-.143.07-.567" fill-rule="nonzero" fill="#231F20"/><path d="M34.708 76.648l.012-.052c.026-.212-1.145-.435-2.287-.435-1.315 0-2.3.27-3.183.85-1.235.83-1.985 2.19-1.985 3.65 0 1.39.697 2.72 1.815 3.46.735.49 1.523.7 2.694.7.83 0 2.053-.13 2.46-.28l.21-.18.09-.55.016-.06-.053-.05-.067-.05-.065-.032-.04.014c-.645.34-1.564.554-2.43.554-.882 0-1.684-.302-2.317-.895-.775-.7-1.142-1.61-1.142-2.77 0-2.2 1.42-3.622 3.575-3.622.73 0 1.7.21 2.21.49l.19.08.08-.025.08-.04.08-.143.07-.567z" stroke="#231F20" stroke-width=".5"/><path d="M44.82 79.903v-3.598h-1.024v8.357h1.025V80.67h5.07v3.992h1.04v-8.357h-1.04v3.598h-5.07" fill-rule="nonzero" fill="#231F20"/><path d="M44.82 79.903v-3.598h-1.024v8.357h1.025V80.67h5.07v3.992h1.04v-8.357h-1.04v3.598z" stroke-width=".5" stroke="#231F20"/><path d="M198.96 76.305v8.358h.92l-.196-6.84 6.008 6.96.446-.16.012-8.318h-.92l.185 6.643-5.678-6.643h-.776" fill-rule="nonzero" fill="#231F20"/><path d="M198.96 76.305v8.358h.92l-.196-6.84 6.008 6.96.446-.16.012-8.318h-.92l.185 6.643-5.678-6.643z" stroke-width=".5" stroke="#231F20"/><path d="M17.347 77.225l-.137-.8-.127-.154c-.268-.12-1.135-.24-1.676-.24-1.865 0-3.075.94-3.075 2.37 0 .6.23 1.11.632 1.47.405.34.702.5 1.866.99.84.36 1.21.56 1.482.85.232.24.37.61.37.95 0 .92-.822 1.54-2.032 1.54-.776 0-1.86-.28-2.392-.64l-.09-.04-.17.07-.044.12.122.76.194.168c.405.15 1.568.31 2.244.31 1.906 0 3.21-1.014 3.21-2.512 0-.54-.215-1.052-.59-1.43-.38-.376-.824-.633-1.813-1.056-1.04-.45-1.2-.546-1.51-.78-.31-.23-.46-.55-.46-.97 0-.896.72-1.45 1.82-1.45.61 0 1.43.23 1.84.53l.13.08.2-.08.04-.03" fill-rule="nonzero" fill="#231F20"/><path d="M17.347 77.225l-.137-.8-.127-.154c-.268-.12-1.135-.24-1.676-.24-1.865 0-3.075.94-3.075 2.37 0 .6.23 1.11.632 1.47.405.34.702.5 1.866.99.84.36 1.21.56 1.482.85.232.24.37.61.37.95 0 .92-.822 1.54-2.032 1.54-.776 0-1.86-.28-2.392-.64l-.09-.04-.17.07-.044.12.122.76.194.168c.405.15 1.568.31 2.244.31 1.906 0 3.21-1.014 3.21-2.512 0-.54-.215-1.052-.59-1.43-.38-.376-.824-.633-1.813-1.056-1.04-.45-1.2-.546-1.51-.78-.31-.23-.46-.55-.46-.97 0-.896.72-1.45 1.82-1.45.61 0 1.43.23 1.84.53l.13.08.2-.08.04-.03z" stroke="#231F20" stroke-width=".5"/><path d="M238.213 77.225l-.134-.8-.13-.154c-.27-.12-1.14-.24-1.68-.24-1.87 0-3.08.94-3.08 2.37 0 .6.23 1.11.63 1.47.4.34.7.5 1.86.99.84.36 1.2.56 1.48.85.23.24.37.61.37.95 0 .92-.83 1.54-2.03 1.54-.78 0-1.86-.28-2.4-.64l-.09-.04-.17.07-.05.12.12.76.194.168c.403.15 1.567.31 2.242.31 1.902 0 3.21-1.014 3.21-2.512 0-.54-.218-1.052-.59-1.43-.38-.376-.828-.633-1.817-1.056-1.044-.45-1.21-.546-1.52-.78-.316-.23-.467-.55-.467-.97 0-.896.715-1.45 1.817-1.45.61 0 1.43.23 1.84.53l.126.08.2-.08.03-.03" fill-rule="nonzero" fill="#231F20"/><path d="M238.213 77.225l-.134-.8-.13-.154c-.27-.12-1.14-.24-1.68-.24-1.87 0-3.08.94-3.08 2.37 0 .6.23 1.11.63 1.47.4.34.7.5 1.86.99.84.36 1.2.56 1.48.85.23.24.37.61.37.95 0 .92-.83 1.54-2.03 1.54-.78 0-1.86-.28-2.4-.64l-.09-.04-.17.07-.05.12.12.76.194.168c.403.15 1.567.31 2.242.31 1.902 0 3.21-1.014 3.21-2.512 0-.54-.218-1.052-.59-1.43-.38-.376-.828-.633-1.817-1.056-1.044-.45-1.21-.546-1.52-.78-.316-.23-.467-.55-.467-.97 0-.896.715-1.45 1.817-1.45.61 0 1.43.23 1.84.53l.126.08.2-.08.03-.03z" stroke="#231F20" stroke-width=".5"/><path d="M122.672 84.146v-3.73h2.234v-.66h-2.234l.04-1.08h-.24l-1.43 1.502v.237h.682v2.754c0 .38-.886.98-2.143.98-1.24 0-2.16-.72-2.16-1.77 0-1.34.89-1.98 2.6-1.98v-.66c-1.43 0-2.13-.64-2.13-1.55 0-.86.61-1.33 1.35-1.33.88 0 1.37.39 1.56.54l.23.01.15-.148.07-.45c.01-.1.08-.155-.16-.26-.24-.104-.93-.335-1.76-.335-1.342 0-2.51.712-2.51 2.13 0 1.02.8 1.574 1.37 1.802-.74.08-1.91.932-1.91 2.282s1.29 2.346 3.01 2.346c.938 0 1.91-.305 2.325-.476.443-.186 1.08-.19 1.08-.19" fill-rule="nonzero" fill="#231F20"/><path d="M122.672 84.146v-3.73h2.234v-.66h-2.234l.04-1.08h-.24l-1.43 1.502v.237h.682v2.754c0 .38-.886.98-2.143.98-1.24 0-2.16-.72-2.16-1.77 0-1.34.89-1.98 2.6-1.98v-.66c-1.43 0-2.13-.64-2.13-1.55 0-.86.61-1.33 1.35-1.33.88 0 1.37.39 1.56.54l.23.01.15-.148.07-.45c.01-.1.08-.155-.16-.26-.24-.104-.93-.335-1.76-.335-1.342 0-2.51.712-2.51 2.13 0 1.02.8 1.574 1.37 1.802-.74.08-1.91.932-1.91 2.282s1.29 2.346 3.01 2.346c.938 0 1.91-.305 2.325-.476.443-.186 1.08-.19 1.08-.19z" stroke="#231F20" stroke-width=".5"/><path d="M67.423 77.522c.728.773 1.176 1.967 1.176 3.102 0 2.103-1.45 3.736-3.33 3.736-2.01 0-3.6-1.798-3.6-4.058 0-2.148 1.43-3.692 3.42-3.692.96 0 1.75.307 2.32.912zm-4.808-.84c-1.243.792-2.062 2.324-2.062 3.87 0 2.49 2.007 4.5 4.49 4.5.86 0 1.815-.26 2.495-.656 1.34-.793 2.184-2.353 2.184-4.022 0-2.556-1.856-4.458-4.38-4.458-1.05 0-1.896.233-2.727.766z" fill-rule="nonzero" fill="#FFF"/><path d="M67.423 77.522c.728.773 1.176 1.967 1.176 3.102 0 2.103-1.45 3.736-3.33 3.736-2.01 0-3.6-1.798-3.6-4.058 0-2.148 1.43-3.692 3.42-3.692.96 0 1.75.307 2.32.912zm-4.808-.84c-1.243.792-2.062 2.324-2.062 3.87 0 2.49 2.007 4.5 4.49 4.5.86 0 1.815-.26 2.495-.656 1.34-.793 2.184-2.353 2.184-4.022 0-2.556-1.856-4.458-4.38-4.458-1.05 0-1.896.233-2.727.766z" fill-rule="nonzero" fill="#231F20"/><g stroke="#231F20" stroke-width=".5"><path d="M67.423 77.522c.728.773 1.176 1.967 1.176 3.102 0 2.103-1.45 3.736-3.33 3.736-2.01 0-3.6-1.798-3.6-4.058 0-2.148 1.43-3.692 3.42-3.692.96 0 1.75.307 2.32.912z"/><path d="M62.615 76.682c-1.243.792-2.062 2.324-2.062 3.87 0 2.49 2.007 4.5 4.49 4.5.86 0 1.815-.26 2.495-.656 1.34-.793 2.184-2.353 2.184-4.022 0-2.556-1.856-4.458-4.38-4.458-1.05 0-1.896.233-2.727.766z"/></g><path d="M141.77 84.703h1.03V80.69h3.73v-.736h-3.73v-2.96h4.407v-.725h-5.438v8.43" fill-rule="nonzero" fill="#231F20"/><path d="M141.77 84.703h1.03V80.69h3.73v-.736h-3.73v-2.96h4.407v-.725h-5.438z" stroke-width=".5" stroke="#231F20"/><path d="M184.008 76.305v8.358h5.405V83.9h-4.378v-3.31h3.853v-.74h-3.853v-2.82h4.35v-.725h-5.377" fill-rule="nonzero" fill="#231F20"/><path d="M184.008 76.305v8.358h5.405V83.9h-4.378v-3.31h3.853v-.74h-3.853v-2.82h4.35v-.725z" stroke-width=".5" stroke="#231F20"/><path fill="#231F20" fill-rule="nonzero" d="M172.167 84.662h1.068v-8.357h-1.068"/><path stroke="#231F20" stroke-width=".188" d="M173.235 76.305h-1.068v8.356h1.068z"/><path d="M216.42 84.662h2.502c1.617 0 2.59-.25 3.39-.857 1.028-.79 1.62-2.07 1.62-3.493 0-1.212-.407-2.36-1.104-3.07-.752-.764-1.566-1.016-3.38-1.016-.91 0-1.716.014-3.028.067v8.37zm1.056-.658V76.94c.802-.042 1.38-.054 1.748-.054 1.078 0 1.592.106 2.105.435.87.56 1.43 1.73 1.43 3.05 0 1.06-.36 2.12-.92 2.73-.57.61-1.49.91-2.86.91h-1.51z" fill-rule="nonzero" fill="#FFF200"/><path d="M216.42 84.662h2.502c1.617 0 2.59-.25 3.39-.857 1.028-.79 1.62-2.07 1.62-3.493 0-1.212-.407-2.36-1.104-3.07-.752-.764-1.566-1.016-3.38-1.016-.91 0-1.716.014-3.028.067v8.37zm1.056-.658V76.94c.802-.042 1.38-.054 1.748-.054 1.078 0 1.592.106 2.105.435.87.56 1.43 1.73 1.43 3.05 0 1.06-.36 2.12-.92 2.73-.57.61-1.49.91-2.86.91h-1.51z" fill-rule="nonzero" fill="#231F20"/><g stroke="#231F20" stroke-width=".5"><path d="M216.42 84.662h2.502c1.617 0 2.59-.25 3.39-.857 1.028-.79 1.62-2.07 1.62-3.493 0-1.212-.407-2.36-1.104-3.07-.752-.764-1.566-1.016-3.38-1.016-.91 0-1.716.014-3.028.067v8.37z"/><path d="M217.476 84.004V76.94c.802-.042 1.38-.054 1.748-.054 1.078 0 1.592.106 2.105.435.87.56 1.43 1.73 1.43 3.05 0 1.06-.36 2.12-.92 2.73-.57.61-1.49.91-2.86.91h-1.51z"/></g><path d="M79.36 76.305v8.358h5.247V83.9h-4.19v-7.595H79.36" fill-rule="nonzero" fill="#231F20"/><path d="M79.36 76.305v8.358h5.247V83.9h-4.19v-7.595z" stroke-width=".5" stroke="#231F20"/><path d="M93.04 76.305v.725h5.06l-5.587 7.172v.46h6.864l.118-.763h-5.508l5.508-7.16v-.44h-6.45" fill-rule="nonzero" fill="#231F20"/><path d="M93.04 76.305v.725h5.06l-5.587 7.172v.46h6.864l.118-.763h-5.508l5.508-7.16v-.44z" stroke-width=".5" stroke="#231F20"/></g></svg>